<mxfile host="app.diagrams.net" modified="2022-01-03T16:12:02.340Z" agent="5.0 (X11)" etag="jsgGfeNlALdEkkCjyp-o" version="16.1.2" type="github">
  <diagram id="5B-tbCZJ6QCjXUBR-Ypi" name="Page-1">
    <mxGraphModel dx="782" dy="418" grid="1" gridSize="10" guides="1" tooltips="1" connect="1" arrows="1" fold="1" page="1" pageScale="1" pageWidth="827" pageHeight="1169" math="0" shadow="0">
      <root>
        <mxCell id="0" />
        <mxCell id="1" parent="0" />
        <mxCell id="nYSBGLhYelIdfR2VyDLs-15" style="edgeStyle=orthogonalEdgeStyle;rounded=0;orthogonalLoop=1;jettySize=auto;html=1;entryX=0.5;entryY=0;entryDx=0;entryDy=0;entryPerimeter=0;" edge="1" parent="1" source="nYSBGLhYelIdfR2VyDLs-1" target="nYSBGLhYelIdfR2VyDLs-3">
          <mxGeometry relative="1" as="geometry" />
        </mxCell>
        <mxCell id="nYSBGLhYelIdfR2VyDLs-1" value="Начало" style="ellipse;whiteSpace=wrap;html=1;" vertex="1" parent="1">
          <mxGeometry x="340" y="90" width="120" height="80" as="geometry" />
        </mxCell>
        <mxCell id="nYSBGLhYelIdfR2VyDLs-16" style="edgeStyle=orthogonalEdgeStyle;rounded=0;orthogonalLoop=1;jettySize=auto;html=1;" edge="1" parent="1" source="nYSBGLhYelIdfR2VyDLs-3" target="nYSBGLhYelIdfR2VyDLs-5">
          <mxGeometry relative="1" as="geometry" />
        </mxCell>
        <mxCell id="nYSBGLhYelIdfR2VyDLs-17" style="edgeStyle=orthogonalEdgeStyle;rounded=0;orthogonalLoop=1;jettySize=auto;html=1;entryX=0.5;entryY=0;entryDx=0;entryDy=0;" edge="1" parent="1" source="nYSBGLhYelIdfR2VyDLs-3" target="nYSBGLhYelIdfR2VyDLs-4">
          <mxGeometry relative="1" as="geometry" />
        </mxCell>
        <mxCell id="nYSBGLhYelIdfR2VyDLs-3" value="Ввод: list_1 = int(i) for i in input(Введите числа через пробел).split" style="whiteSpace=wrap;html=1;shape=mxgraph.basic.octagon2;align=center;verticalAlign=middle;dx=15;" vertex="1" parent="1">
          <mxGeometry x="335" y="210" width="130" height="100" as="geometry" />
        </mxCell>
        <mxCell id="nYSBGLhYelIdfR2VyDLs-18" style="edgeStyle=orthogonalEdgeStyle;rounded=0;orthogonalLoop=1;jettySize=auto;html=1;entryX=0.5;entryY=0;entryDx=0;entryDy=0;entryPerimeter=0;" edge="1" parent="1" source="nYSBGLhYelIdfR2VyDLs-4" target="nYSBGLhYelIdfR2VyDLs-6">
          <mxGeometry relative="1" as="geometry" />
        </mxCell>
        <mxCell id="nYSBGLhYelIdfR2VyDLs-4" value="list_2 = []" style="rounded=0;whiteSpace=wrap;html=1;" vertex="1" parent="1">
          <mxGeometry x="340" y="350" width="120" height="60" as="geometry" />
        </mxCell>
        <mxCell id="nYSBGLhYelIdfR2VyDLs-5" value="Вывод: Ваш массив list_1" style="shape=parallelogram;perimeter=parallelogramPerimeter;whiteSpace=wrap;html=1;fixedSize=1;" vertex="1" parent="1">
          <mxGeometry x="530" y="230" width="140" height="60" as="geometry" />
        </mxCell>
        <mxCell id="nYSBGLhYelIdfR2VyDLs-19" style="edgeStyle=orthogonalEdgeStyle;rounded=0;orthogonalLoop=1;jettySize=auto;html=1;entryX=0.5;entryY=0;entryDx=0;entryDy=0;" edge="1" parent="1" source="nYSBGLhYelIdfR2VyDLs-6" target="nYSBGLhYelIdfR2VyDLs-7">
          <mxGeometry relative="1" as="geometry" />
        </mxCell>
        <mxCell id="nYSBGLhYelIdfR2VyDLs-6" value="for i in list_1" style="whiteSpace=wrap;html=1;shape=mxgraph.basic.octagon2;align=center;verticalAlign=middle;dx=15;" vertex="1" parent="1">
          <mxGeometry x="350" y="440" width="100" height="100" as="geometry" />
        </mxCell>
        <mxCell id="nYSBGLhYelIdfR2VyDLs-20" style="edgeStyle=orthogonalEdgeStyle;rounded=0;orthogonalLoop=1;jettySize=auto;html=1;" edge="1" parent="1" source="nYSBGLhYelIdfR2VyDLs-7" target="nYSBGLhYelIdfR2VyDLs-10">
          <mxGeometry relative="1" as="geometry" />
        </mxCell>
        <mxCell id="nYSBGLhYelIdfR2VyDLs-21" style="edgeStyle=orthogonalEdgeStyle;rounded=0;orthogonalLoop=1;jettySize=auto;html=1;entryX=0.5;entryY=0;entryDx=0;entryDy=0;" edge="1" parent="1" source="nYSBGLhYelIdfR2VyDLs-7" target="nYSBGLhYelIdfR2VyDLs-11">
          <mxGeometry relative="1" as="geometry" />
        </mxCell>
        <mxCell id="nYSBGLhYelIdfR2VyDLs-7" value="i % 2 = 0" style="rhombus;whiteSpace=wrap;html=1;" vertex="1" parent="1">
          <mxGeometry x="360" y="570" width="80" height="80" as="geometry" />
        </mxCell>
        <mxCell id="nYSBGLhYelIdfR2VyDLs-8" value="Да" style="text;html=1;strokeColor=none;fillColor=none;align=center;verticalAlign=middle;whiteSpace=wrap;rounded=0;" vertex="1" parent="1">
          <mxGeometry x="405" y="560" width="60" height="30" as="geometry" />
        </mxCell>
        <mxCell id="nYSBGLhYelIdfR2VyDLs-9" value="Нет" style="text;html=1;strokeColor=none;fillColor=none;align=center;verticalAlign=middle;whiteSpace=wrap;rounded=0;" vertex="1" parent="1">
          <mxGeometry x="330" y="560" width="60" height="30" as="geometry" />
        </mxCell>
        <mxCell id="nYSBGLhYelIdfR2VyDLs-22" style="edgeStyle=orthogonalEdgeStyle;rounded=0;orthogonalLoop=1;jettySize=auto;html=1;entryX=1;entryY=0.5;entryDx=0;entryDy=0;" edge="1" parent="1" source="nYSBGLhYelIdfR2VyDLs-10" target="nYSBGLhYelIdfR2VyDLs-12">
          <mxGeometry relative="1" as="geometry">
            <Array as="points">
              <mxPoint x="540" y="810" />
            </Array>
          </mxGeometry>
        </mxCell>
        <mxCell id="nYSBGLhYelIdfR2VyDLs-26" style="edgeStyle=orthogonalEdgeStyle;rounded=0;orthogonalLoop=1;jettySize=auto;html=1;entryX=1;entryY=0.5;entryDx=0;entryDy=0;entryPerimeter=0;" edge="1" parent="1" source="nYSBGLhYelIdfR2VyDLs-10" target="nYSBGLhYelIdfR2VyDLs-6">
          <mxGeometry relative="1" as="geometry">
            <Array as="points">
              <mxPoint x="640" y="700" />
              <mxPoint x="640" y="490" />
            </Array>
          </mxGeometry>
        </mxCell>
        <mxCell id="nYSBGLhYelIdfR2VyDLs-10" value="list_2.append(i)" style="rounded=0;whiteSpace=wrap;html=1;" vertex="1" parent="1">
          <mxGeometry x="480" y="670" width="120" height="60" as="geometry" />
        </mxCell>
        <mxCell id="nYSBGLhYelIdfR2VyDLs-23" style="edgeStyle=orthogonalEdgeStyle;rounded=0;orthogonalLoop=1;jettySize=auto;html=1;entryX=0;entryY=0.5;entryDx=0;entryDy=0;" edge="1" parent="1" source="nYSBGLhYelIdfR2VyDLs-11" target="nYSBGLhYelIdfR2VyDLs-12">
          <mxGeometry relative="1" as="geometry">
            <Array as="points">
              <mxPoint x="270" y="810" />
            </Array>
          </mxGeometry>
        </mxCell>
        <mxCell id="nYSBGLhYelIdfR2VyDLs-27" style="edgeStyle=orthogonalEdgeStyle;rounded=0;orthogonalLoop=1;jettySize=auto;html=1;entryX=0;entryY=0.5;entryDx=0;entryDy=0;entryPerimeter=0;" edge="1" parent="1" source="nYSBGLhYelIdfR2VyDLs-11" target="nYSBGLhYelIdfR2VyDLs-6">
          <mxGeometry relative="1" as="geometry">
            <Array as="points">
              <mxPoint x="170" y="700" />
              <mxPoint x="170" y="490" />
            </Array>
          </mxGeometry>
        </mxCell>
        <mxCell id="nYSBGLhYelIdfR2VyDLs-11" value="pass" style="rounded=0;whiteSpace=wrap;html=1;" vertex="1" parent="1">
          <mxGeometry x="210" y="670" width="120" height="60" as="geometry" />
        </mxCell>
        <mxCell id="nYSBGLhYelIdfR2VyDLs-25" style="edgeStyle=orthogonalEdgeStyle;rounded=0;orthogonalLoop=1;jettySize=auto;html=1;" edge="1" parent="1" source="nYSBGLhYelIdfR2VyDLs-12" target="nYSBGLhYelIdfR2VyDLs-24">
          <mxGeometry relative="1" as="geometry" />
        </mxCell>
        <mxCell id="nYSBGLhYelIdfR2VyDLs-12" value="Вывод: Четные числа вашего массива list_2" style="shape=parallelogram;perimeter=parallelogramPerimeter;whiteSpace=wrap;html=1;fixedSize=1;" vertex="1" parent="1">
          <mxGeometry x="340" y="780" width="120" height="60" as="geometry" />
        </mxCell>
        <mxCell id="nYSBGLhYelIdfR2VyDLs-24" value="Конец" style="ellipse;whiteSpace=wrap;html=1;" vertex="1" parent="1">
          <mxGeometry x="340" y="880" width="120" height="80" as="geometry" />
        </mxCell>
      </root>
    </mxGraphModel>
  </diagram>
</mxfile>
